<svg width="420" height="420" viewBox="0 0 420 420" fill="none" xmlns="http://www.w3.org/2000/svg">
<rect width="420" height="420" rx="30" fill="#EAAF4A" fill-opacity="0.23"/>
<g filter="url(#filter0_f)">
<path fill-rule="evenodd" clip-rule="evenodd" d="M163.248 79.1216C156.2 72.0683 144.976 72.2667 138.179 79.5645L132.183 86.0011C125.385 93.2989 125.587 104.933 132.635 111.986L210.271 189.683L106.347 298.871C99.474 306.093 99.5559 317.728 106.53 324.859L112.844 331.315C119.818 338.447 131.044 338.373 137.917 331.152L171.514 295.853L247.13 376.467C253.959 383.747 265.184 383.917 272.201 376.846L280.47 368.513C287.488 361.443 287.64 349.809 280.811 342.528L204.51 261.185L304.694 155.926C311.567 148.705 311.485 137.07 304.511 129.938L298.197 123.482C291.223 116.351 279.998 116.424 273.124 123.645L241.225 157.16L163.248 79.1216ZM43.7422 230.67C36.5754 223.746 36.1745 212.118 42.8467 204.697L104.08 136.59C110.752 129.168 121.97 128.765 129.137 135.688L133.443 139.848C140.61 146.771 141.011 158.4 134.339 165.821L73.1059 233.928C66.4337 241.349 55.2151 241.753 48.0483 234.83L43.7422 230.67ZM283.351 309.98C276.184 303.057 275.784 291.429 282.456 284.008L343.689 215.9C350.361 208.479 361.579 208.076 368.746 214.998L375.234 221.266C382.401 228.19 382.802 239.818 376.13 247.239L314.897 315.346C308.225 322.768 297.006 323.171 289.839 316.248L283.351 309.98Z" fill="#EAAF4A" fill-opacity="0.5"/>
</g>
<g filter="url(#filter1_f)">
<path fill-rule="evenodd" clip-rule="evenodd" d="M163.749 54.0435C156.702 46.9902 145.478 47.1886 138.68 54.4864L132.684 60.923C125.886 68.2208 126.089 79.8544 133.137 86.9077L210.773 164.605L106.849 273.793C99.9755 281.014 100.057 292.65 107.031 299.781L113.345 306.237C120.32 313.369 131.545 313.295 138.418 306.074L172.015 270.775L247.632 351.388C254.461 358.669 265.686 358.839 272.703 351.767L280.972 343.435C287.989 336.365 288.142 324.73 281.312 317.45L205.012 236.107L305.195 130.848C312.069 123.627 311.987 111.992 305.013 104.86L298.699 98.4039C291.725 91.2728 280.499 91.3456 273.626 98.5668L241.727 132.082L163.749 54.0435ZM44.2436 205.592C37.0769 198.668 36.676 187.04 43.3481 179.619L104.581 111.511C111.253 104.09 122.472 103.687 129.639 110.61L133.945 114.77C141.112 121.693 141.512 133.321 134.84 140.743L73.6073 208.85C66.9352 216.271 55.7165 216.675 48.5498 209.751L44.2436 205.592ZM283.853 284.902C276.686 277.979 276.285 266.351 282.957 258.93L344.19 190.822C350.862 183.401 362.081 182.998 369.248 189.92L375.736 196.188C382.903 203.112 383.304 214.74 376.631 222.161L315.398 290.268C308.726 297.69 297.508 298.093 290.341 291.17L283.853 284.902Z" fill="#EAAF4A" fill-opacity="0.3"/>
</g>
<g filter="url(#filter2_d)">
<path fill-rule="evenodd" clip-rule="evenodd" d="M161.285 46.1754C154.115 38.4632 142.896 38.8258 136.224 46.985L130.34 54.1814C123.669 62.3407 124.072 75.2067 131.241 82.9189L210.215 167.874L108.184 289.98C101.436 298.055 101.719 310.925 108.816 318.724L115.241 325.785C122.338 333.585 133.561 333.36 140.309 325.285L173.294 285.81L250.299 374.017C257.254 381.983 268.481 382.028 275.376 374.117L283.5 364.795C290.395 356.884 290.346 344.012 283.392 336.046L205.69 247.041L304.049 129.33C310.797 121.254 310.514 108.385 303.417 100.585L296.992 93.5241C289.895 85.725 278.672 85.9486 271.924 94.0242L240.606 131.504L161.285 46.1754ZM44.4042 215.336C37.1183 207.769 36.5165 194.912 43.06 186.618L103.113 110.499C109.656 102.205 120.867 101.615 128.153 109.182L132.531 113.728C139.817 121.295 140.419 134.153 133.875 142.447L73.8225 218.566C67.279 226.86 56.068 227.45 48.782 219.883L44.4042 215.336ZM285.369 300.011C278.084 292.444 277.482 279.586 284.025 271.292L344.078 195.174C350.621 186.879 361.832 186.29 369.118 193.856L375.715 200.707C383 208.274 383.602 221.131 377.059 229.425L317.006 305.544C310.463 313.838 299.252 314.428 291.966 306.861L285.369 300.011Z" fill="#EAAF4A"/>
</g>
<defs>
<filter id="filter0_f" x="16.0862" y="50.7339" width="386.86" height="354.414" filterUnits="userSpaceOnUse" color-interpolation-filters="sRGB">
<feFlood flood-opacity="0" result="BackgroundImageFix"/>
<feBlend mode="normal" in="SourceGraphic" in2="BackgroundImageFix" result="shape"/>
<feGaussianBlur stdDeviation="10" result="effect1_foregroundBlur"/>
</filter>
<filter id="filter1_f" x="16.5876" y="25.6558" width="386.86" height="354.414" filterUnits="userSpaceOnUse" color-interpolation-filters="sRGB">
<feFlood flood-opacity="0" result="BackgroundImageFix"/>
<feBlend mode="normal" in="SourceGraphic" in2="BackgroundImageFix" result="shape"/>
<feGaussianBlur stdDeviation="10" result="effect1_foregroundBlur"/>
</filter>
<filter id="filter2_d" x="26.0691" y="26.1514" width="372.105" height="372.105" filterUnits="userSpaceOnUse" color-interpolation-filters="sRGB">
<feFlood flood-opacity="0" result="BackgroundImageFix"/>
<feColorMatrix in="SourceAlpha" type="matrix" values="0 0 0 0 0 0 0 0 0 0 0 0 0 0 0 0 0 0 127 0"/>
<feOffset dx="2" dy="2"/>
<feGaussianBlur stdDeviation="5"/>
<feColorMatrix type="matrix" values="0 0 0 0 0.916667 0 0 0 0 0.685298 0 0 0 0 0.290278 0 0 0 0.23 0"/>
<feBlend mode="normal" in2="BackgroundImageFix" result="effect1_dropShadow"/>
<feBlend mode="normal" in="SourceGraphic" in2="effect1_dropShadow" result="shape"/>
</filter>
</defs>
</svg>
