<svg width="447" height="439" viewBox="0 0 447 439" fill="none" xmlns="http://www.w3.org/2000/svg">
<g filter="url(#filter0_f)">
<path fill-rule="evenodd" clip-rule="evenodd" d="M169.39 61.2629C161.159 53.0257 148.052 53.2575 140.113 61.7802L133.111 69.2971C125.172 77.8198 125.408 91.406 133.639 99.6432L224.306 190.381L102.939 317.897C94.9119 326.33 95.0075 339.918 103.152 348.246L110.526 355.786C118.671 364.114 131.78 364.029 139.807 355.596L179.043 314.372L267.351 408.516C275.327 417.018 288.436 417.216 296.631 408.958L306.288 399.228C314.483 390.97 314.661 377.383 306.685 368.88L217.578 273.885L334.577 150.959C342.604 142.525 342.508 128.937 334.364 120.609L326.99 113.069C318.845 104.741 305.736 104.826 297.709 113.259L260.456 152.4L169.39 61.2629ZM29.8258 238.248C21.4561 230.162 20.9879 216.582 28.78 207.916L100.291 128.377C108.083 119.71 121.184 119.239 129.554 127.323L134.583 132.182C142.952 140.267 143.421 153.847 135.629 162.514L64.118 242.053C56.326 250.719 43.2244 251.191 34.8547 243.106L29.8258 238.248ZM309.652 330.87C301.282 322.785 300.814 309.205 308.606 300.538L380.117 220.999C387.909 212.332 401.01 211.861 409.38 219.946L416.957 227.266C425.327 235.351 425.795 248.931 418.003 257.598L346.493 337.137C338.7 345.804 325.599 346.275 317.229 338.19L309.652 330.87Z" fill="#EAAF4A" fill-opacity="0.5"/>
</g>
<g filter="url(#filter1_f)">
<path fill-rule="evenodd" clip-rule="evenodd" d="M169.976 31.9753C161.745 23.7381 148.637 23.9699 140.698 32.4926L133.696 40.0095C125.757 48.5322 125.994 62.1184 134.225 70.3556L224.891 161.093L103.524 288.609C95.4975 297.042 95.5931 310.63 103.738 318.958L111.111 326.498C119.256 334.827 132.366 334.741 140.393 326.308L179.629 285.084L267.937 379.228C275.912 387.73 289.021 387.929 297.216 379.671L306.873 369.94C315.068 361.683 315.246 348.096 307.271 339.593L218.163 244.597L335.163 121.671C343.189 113.238 343.094 99.6496 334.949 91.3211L327.575 83.7814C319.431 75.4534 306.321 75.5384 298.294 83.9717L261.041 123.112L169.976 31.9753ZM30.4113 208.96C22.0417 200.875 21.5735 187.295 29.3655 178.628L100.876 99.089C108.668 90.4222 121.77 89.9511 130.139 98.0359L135.168 102.894C143.538 110.979 144.006 124.56 136.214 133.226L64.7036 212.765C56.9116 221.432 43.8099 221.903 35.4403 213.818L30.4113 208.96ZM310.238 301.582C301.868 293.497 301.4 279.917 309.192 271.251L380.702 191.712C388.494 183.045 401.596 182.574 409.966 190.658L417.543 197.978C425.913 206.064 426.381 219.644 418.589 228.31L347.078 307.849C339.286 316.516 326.184 316.987 317.815 308.902L310.238 301.582Z" fill="#EAAF4A" fill-opacity="0.3"/>
</g>
<g filter="url(#filter2_d)">
<path fill-rule="evenodd" clip-rule="evenodd" d="M167.097 22.7867C158.725 13.7801 145.622 14.2035 137.831 23.7323L130.959 32.1366C123.168 41.6653 123.639 56.6908 132.011 65.6975L224.24 164.912L105.084 307.513C97.2032 316.943 97.5336 331.973 105.822 341.081L113.325 349.327C121.613 358.436 134.721 358.174 142.601 348.743L181.123 302.643L271.053 405.655C279.175 414.958 292.286 415.011 300.338 405.771L309.826 394.885C317.878 385.646 317.821 370.614 309.699 361.311L218.956 257.367L333.824 119.898C341.705 110.467 341.374 95.4377 333.086 86.3289L325.583 78.0827C317.295 68.9745 304.187 69.2357 296.307 78.6667L259.732 122.437L167.097 22.7867ZM30.599 220.34C22.0902 211.503 21.3873 196.488 29.0292 186.802L99.1613 97.9065C106.803 88.2203 119.896 87.5321 128.405 96.3684L133.517 101.678C142.026 110.515 142.729 125.531 135.087 135.217L64.955 224.112C57.3131 233.798 44.2204 234.487 35.7116 225.65L30.599 220.34ZM312.009 319.227C303.5 310.39 302.797 295.375 310.439 285.688L380.571 196.793C388.213 187.107 401.306 186.419 409.815 195.255L417.518 203.256C426.027 212.093 426.73 227.108 419.088 236.794L348.956 325.689C341.314 335.376 328.221 336.064 319.712 327.228L312.009 319.227Z" fill="#EAAF4A"/>
</g>
<defs>
<filter id="filter0_f" x="0.884766" y="31.4673" width="445.079" height="407.187" filterUnits="userSpaceOnUse" color-interpolation-filters="sRGB">
<feFlood flood-opacity="0" result="BackgroundImageFix"/>
<feBlend mode="normal" in="SourceGraphic" in2="BackgroundImageFix" result="shape"/>
<feGaussianBlur stdDeviation="10" result="effect1_foregroundBlur"/>
</filter>
<filter id="filter1_f" x="1.47034" y="2.17969" width="445.079" height="407.187" filterUnits="userSpaceOnUse" color-interpolation-filters="sRGB">
<feFlood flood-opacity="0" result="BackgroundImageFix"/>
<feBlend mode="normal" in="SourceGraphic" in2="BackgroundImageFix" result="shape"/>
<feGaussianBlur stdDeviation="10" result="effect1_foregroundBlur"/>
</filter>
<filter id="filter2_d" x="10.5292" y="0.744141" width="431.204" height="431.204" filterUnits="userSpaceOnUse" color-interpolation-filters="sRGB">
<feFlood flood-opacity="0" result="BackgroundImageFix"/>
<feColorMatrix in="SourceAlpha" type="matrix" values="0 0 0 0 0 0 0 0 0 0 0 0 0 0 0 0 0 0 127 0"/>
<feOffset dx="2" dy="2"/>
<feGaussianBlur stdDeviation="5"/>
<feColorMatrix type="matrix" values="0 0 0 0 0.916667 0 0 0 0 0.685298 0 0 0 0 0.290278 0 0 0 0.23 0"/>
<feBlend mode="normal" in2="BackgroundImageFix" result="effect1_dropShadow"/>
<feBlend mode="normal" in="SourceGraphic" in2="effect1_dropShadow" result="shape"/>
</filter>
</defs>
</svg>
