<svg width="26" height="16" viewBox="0 0 26 16" fill="none" xmlns="http://www.w3.org/2000/svg">
<path fill-rule="evenodd" clip-rule="evenodd" d="M9 0.5C9 0.776123 9.22388 1 9.5 1C9.77612 1 10 0.776123 10 0.5C10 0.223877 9.77612 0 9.5 0C9.22388 0 9 0.223877 9 0.5ZM1.5 5C2.32843 5 3 4.32837 3 3.5C3 2.67163 2.32843 2 1.5 2C0.67157 2 0 2.67163 0 3.5C0 4.32837 0.67157 5 1.5 5ZM11.5 8C11.2239 8 11 7.77612 11 7.5C11 7.22388 11.2239 7 11.5 7C11.7761 7 12 7.22388 12 7.5C12 7.77612 11.7761 8 11.5 8ZM17.5 6C17.2239 6 17 5.77612 17 5.5C17 5.22388 17.2239 5 17.5 5C17.7761 5 18 5.22388 18 5.5C18 5.77612 17.7761 6 17.5 6ZM22 1.5C22 1.77612 22.2239 2 22.5 2C22.7761 2 23 1.77612 23 1.5C23 1.22388 22.7761 1 22.5 1C22.2239 1 22 1.22388 22 1.5ZM16.5 9C16.2239 9 16 8.77612 16 8.5C16 8.22388 16.2239 8 16.5 8C16.7761 8 17 8.22388 17 8.5C17 8.77612 16.7761 9 16.5 9ZM9 12.5C9 12.7761 9.22388 13 9.5 13C9.77612 13 10 12.7761 10 12.5C10 12.2239 9.77612 12 9.5 12C9.22388 12 9 12.2239 9 12.5ZM5.5 7C5.77612 7 6 6.77612 6 6.5C6 6.22388 5.77612 6 5.5 6C5.22388 6 5 6.22388 5 6.5C5 6.77612 5.22388 7 5.5 7ZM5 1.5C5 1.77612 4.77612 2 4.5 2C4.22388 2 4 1.77612 4 1.5C4 1.22388 4.22388 1 4.5 1C4.77612 1 5 1.22388 5 1.5ZM7 4C7.55231 4 8 3.55225 8 3C8 2.44775 7.55231 2 7 2C6.44769 2 6 2.44775 6 3C6 3.55225 6.44769 4 7 4ZM16 1C16 1.55225 15.5523 2 15 2C14.4477 2 14 1.55225 14 1C14 0.447754 14.4477 0 15 0C15.5523 0 16 0.447754 16 1ZM8.5 10C9.32843 10 10 9.32837 10 8.5C10 7.67163 9.32843 7 8.5 7C7.67157 7 7 7.67163 7 8.5C7 9.32837 7.67157 10 8.5 10ZM16 11.5C16 11.7761 15.7761 12 15.5 12C15.2239 12 15 11.7761 15 11.5C15 11.2239 15.2239 11 15.5 11C15.7761 11 16 11.2239 16 11.5ZM25.5 10C25.7761 10 26 9.77612 26 9.5C26 9.22388 25.7761 9 25.5 9C25.2239 9 25 9.22388 25 9.5C25 9.77612 25.2239 10 25.5 10ZM5 14.5C5 14.7761 4.77612 15 4.5 15C4.22388 15 4 14.7761 4 14.5C4 14.2239 4.22388 14 4.5 14C4.77612 14 5 14.2239 5 14.5ZM4.5 11C4.77612 11 5 10.7761 5 10.5C5 10.2239 4.77612 10 4.5 10C4.22388 10 4 10.2239 4 10.5C4 10.7761 4.22388 11 4.5 11ZM23 11.5C23 11.7761 22.7761 12 22.5 12C22.2239 12 22 11.7761 22 11.5C22 11.2239 22.2239 11 22.5 11C22.7761 11 23 11.2239 23 11.5ZM10.5 16C10.7761 16 11 15.7761 11 15.5C11 15.2239 10.7761 15 10.5 15C10.2239 15 10 15.2239 10 15.5C10 15.7761 10.2239 16 10.5 16ZM20 15C20 15.5522 19.5523 16 19 16C18.4477 16 18 15.5522 18 15C18 14.4478 18.4477 14 19 14C19.5523 14 20 14.4478 20 15ZM22 7C22.5523 7 23 6.55225 23 6C23 5.44775 22.5523 5 22 5C21.4477 5 21 5.44775 21 6C21 6.55225 21.4477 7 22 7Z" fill="#AFAFAF" fill-opacity="0.76"/>
</svg>
